<mxfile host="app.diagrams.net" modified="2022-01-11T04:09:53.149Z" agent="5.0 (Windows NT 10.0; Win64; x64) AppleWebKit/537.36 (KHTML, like Gecko) Chrome/97.0.4692.71 Safari/537.36" etag="RCUn8Ys0jZzU4m18jVQi" version="16.2.4" type="github">
  <diagram id="C5RBs43oDa-KdzZeNtuy" name="Page-1">
    <mxGraphModel dx="1335" dy="692" grid="1" gridSize="10" guides="1" tooltips="1" connect="1" arrows="1" fold="1" page="1" pageScale="1" pageWidth="827" pageHeight="1169" math="0" shadow="0">
      <root>
        <mxCell id="WIyWlLk6GJQsqaUBKTNV-0" />
        <mxCell id="WIyWlLk6GJQsqaUBKTNV-1" parent="WIyWlLk6GJQsqaUBKTNV-0" />
        <mxCell id="WIyWlLk6GJQsqaUBKTNV-6" value="Input Data &lt;br&gt;dari Sensor&lt;br&gt;pH dan suhu" style="rhombus;whiteSpace=wrap;html=1;shadow=0;fontFamily=Helvetica;fontSize=12;align=center;strokeWidth=1;spacing=6;spacingTop=-4;" parent="WIyWlLk6GJQsqaUBKTNV-1" vertex="1">
          <mxGeometry x="149" y="300" width="120" height="110" as="geometry" />
        </mxCell>
        <mxCell id="vDdEp4xboGbFdGhR_zUG-0" value="Mulai" style="ellipse;whiteSpace=wrap;html=1;" parent="WIyWlLk6GJQsqaUBKTNV-1" vertex="1">
          <mxGeometry x="325" y="80" width="90" height="50" as="geometry" />
        </mxCell>
        <mxCell id="vDdEp4xboGbFdGhR_zUG-1" value="Inisialisasi Sensor&lt;br&gt;pH dan suhu" style="rounded=0;whiteSpace=wrap;html=1;" parent="WIyWlLk6GJQsqaUBKTNV-1" vertex="1">
          <mxGeometry x="159" y="230" width="100" height="40" as="geometry" />
        </mxCell>
        <mxCell id="vDdEp4xboGbFdGhR_zUG-4" value="" style="endArrow=classic;html=1;rounded=0;exitX=0.5;exitY=1;exitDx=0;exitDy=0;entryX=0.5;entryY=0;entryDx=0;entryDy=0;" parent="WIyWlLk6GJQsqaUBKTNV-1" source="vDdEp4xboGbFdGhR_zUG-1" target="WIyWlLk6GJQsqaUBKTNV-6" edge="1">
          <mxGeometry width="50" height="50" relative="1" as="geometry">
            <mxPoint x="249" y="420" as="sourcePoint" />
            <mxPoint x="299" y="370" as="targetPoint" />
          </mxGeometry>
        </mxCell>
        <mxCell id="vDdEp4xboGbFdGhR_zUG-5" value="Analisis Data" style="rounded=0;whiteSpace=wrap;html=1;" parent="WIyWlLk6GJQsqaUBKTNV-1" vertex="1">
          <mxGeometry x="159" y="430" width="100" height="20" as="geometry" />
        </mxCell>
        <mxCell id="vDdEp4xboGbFdGhR_zUG-6" value="" style="endArrow=classic;html=1;rounded=0;exitX=0.5;exitY=1;exitDx=0;exitDy=0;entryX=0.5;entryY=0;entryDx=0;entryDy=0;" parent="WIyWlLk6GJQsqaUBKTNV-1" source="WIyWlLk6GJQsqaUBKTNV-6" target="vDdEp4xboGbFdGhR_zUG-5" edge="1">
          <mxGeometry width="50" height="50" relative="1" as="geometry">
            <mxPoint x="259" y="370" as="sourcePoint" />
            <mxPoint x="309" y="320" as="targetPoint" />
          </mxGeometry>
        </mxCell>
        <mxCell id="vDdEp4xboGbFdGhR_zUG-8" value="Konversi&lt;br&gt;Data" style="rounded=0;whiteSpace=wrap;html=1;" parent="WIyWlLk6GJQsqaUBKTNV-1" vertex="1">
          <mxGeometry x="159" y="480" width="100" height="50" as="geometry" />
        </mxCell>
        <mxCell id="vDdEp4xboGbFdGhR_zUG-9" value="Deklarasi Receiver" style="rounded=0;whiteSpace=wrap;html=1;" parent="WIyWlLk6GJQsqaUBKTNV-1" vertex="1">
          <mxGeometry x="159" y="555" width="100" height="40" as="geometry" />
        </mxCell>
        <mxCell id="vDdEp4xboGbFdGhR_zUG-10" value="Mengirim Data ke Cloud iot" style="rounded=0;whiteSpace=wrap;html=1;" parent="WIyWlLk6GJQsqaUBKTNV-1" vertex="1">
          <mxGeometry x="159" y="630" width="100" height="40" as="geometry" />
        </mxCell>
        <mxCell id="vDdEp4xboGbFdGhR_zUG-11" value="Selesai" style="ellipse;whiteSpace=wrap;html=1;" parent="WIyWlLk6GJQsqaUBKTNV-1" vertex="1">
          <mxGeometry x="159" y="790" width="100" height="40" as="geometry" />
        </mxCell>
        <mxCell id="vDdEp4xboGbFdGhR_zUG-12" value="" style="endArrow=classic;html=1;rounded=0;exitX=0.5;exitY=1;exitDx=0;exitDy=0;entryX=0.5;entryY=0;entryDx=0;entryDy=0;" parent="WIyWlLk6GJQsqaUBKTNV-1" source="vDdEp4xboGbFdGhR_zUG-5" target="vDdEp4xboGbFdGhR_zUG-8" edge="1">
          <mxGeometry width="50" height="50" relative="1" as="geometry">
            <mxPoint x="199" y="530" as="sourcePoint" />
            <mxPoint x="249" y="480" as="targetPoint" />
          </mxGeometry>
        </mxCell>
        <mxCell id="vDdEp4xboGbFdGhR_zUG-13" value="" style="endArrow=classic;html=1;rounded=0;entryX=0.5;entryY=0;entryDx=0;entryDy=0;exitX=0.5;exitY=1;exitDx=0;exitDy=0;" parent="WIyWlLk6GJQsqaUBKTNV-1" target="vDdEp4xboGbFdGhR_zUG-9" edge="1" source="vDdEp4xboGbFdGhR_zUG-8">
          <mxGeometry width="50" height="50" relative="1" as="geometry">
            <mxPoint x="209" y="540" as="sourcePoint" />
            <mxPoint x="249" y="480" as="targetPoint" />
          </mxGeometry>
        </mxCell>
        <mxCell id="vDdEp4xboGbFdGhR_zUG-14" value="" style="endArrow=classic;html=1;rounded=0;exitX=0.5;exitY=1;exitDx=0;exitDy=0;entryX=0.5;entryY=0;entryDx=0;entryDy=0;" parent="WIyWlLk6GJQsqaUBKTNV-1" source="vDdEp4xboGbFdGhR_zUG-9" target="vDdEp4xboGbFdGhR_zUG-10" edge="1">
          <mxGeometry width="50" height="50" relative="1" as="geometry">
            <mxPoint x="199" y="530" as="sourcePoint" />
            <mxPoint x="209" y="610" as="targetPoint" />
          </mxGeometry>
        </mxCell>
        <mxCell id="vDdEp4xboGbFdGhR_zUG-16" value="Menyiapkan Koneksi Internet" style="rounded=0;whiteSpace=wrap;html=1;" parent="WIyWlLk6GJQsqaUBKTNV-1" vertex="1">
          <mxGeometry x="320" y="160" width="100" height="50" as="geometry" />
        </mxCell>
        <mxCell id="vDdEp4xboGbFdGhR_zUG-19" value="" style="endArrow=classic;html=1;rounded=0;exitX=0.5;exitY=1;exitDx=0;exitDy=0;entryX=0.5;entryY=0;entryDx=0;entryDy=0;" parent="WIyWlLk6GJQsqaUBKTNV-1" source="vDdEp4xboGbFdGhR_zUG-0" target="vDdEp4xboGbFdGhR_zUG-16" edge="1">
          <mxGeometry width="50" height="50" relative="1" as="geometry">
            <mxPoint x="340" y="280" as="sourcePoint" />
            <mxPoint x="390" y="230" as="targetPoint" />
          </mxGeometry>
        </mxCell>
        <mxCell id="vDdEp4xboGbFdGhR_zUG-22" value="Masukkan Data" style="shape=parallelogram;perimeter=parallelogramPerimeter;whiteSpace=wrap;html=1;fixedSize=1;" parent="WIyWlLk6GJQsqaUBKTNV-1" vertex="1">
          <mxGeometry x="449" y="230" width="140" height="40" as="geometry" />
        </mxCell>
        <mxCell id="vDdEp4xboGbFdGhR_zUG-24" value="Tekan &quot;ON&quot;" style="rounded=0;whiteSpace=wrap;html=1;" parent="WIyWlLk6GJQsqaUBKTNV-1" vertex="1">
          <mxGeometry x="349" y="292.5" width="100" height="30" as="geometry" />
        </mxCell>
        <mxCell id="vDdEp4xboGbFdGhR_zUG-25" value="" style="endArrow=classic;html=1;rounded=0;exitX=0;exitY=0.5;exitDx=0;exitDy=0;entryX=0.5;entryY=0;entryDx=0;entryDy=0;" parent="WIyWlLk6GJQsqaUBKTNV-1" source="vDdEp4xboGbFdGhR_zUG-22" target="vDdEp4xboGbFdGhR_zUG-24" edge="1">
          <mxGeometry width="50" height="50" relative="1" as="geometry">
            <mxPoint x="369" y="320" as="sourcePoint" />
            <mxPoint x="419" y="270" as="targetPoint" />
            <Array as="points">
              <mxPoint x="399" y="250" />
            </Array>
          </mxGeometry>
        </mxCell>
        <mxCell id="vDdEp4xboGbFdGhR_zUG-26" value="" style="endArrow=classic;html=1;rounded=0;exitX=0.5;exitY=1;exitDx=0;exitDy=0;" parent="WIyWlLk6GJQsqaUBKTNV-1" source="vDdEp4xboGbFdGhR_zUG-24" target="vDdEp4xboGbFdGhR_zUG-27" edge="1">
          <mxGeometry width="50" height="50" relative="1" as="geometry">
            <mxPoint x="419" y="322.5" as="sourcePoint" />
            <mxPoint x="399" y="332.5" as="targetPoint" />
          </mxGeometry>
        </mxCell>
        <mxCell id="vDdEp4xboGbFdGhR_zUG-27" value="Jika &quot;ON&quot;&amp;nbsp;&lt;br&gt;Di tekan" style="rhombus;whiteSpace=wrap;html=1;" parent="WIyWlLk6GJQsqaUBKTNV-1" vertex="1">
          <mxGeometry x="349" y="362.5" width="100" height="70" as="geometry" />
        </mxCell>
        <mxCell id="vDdEp4xboGbFdGhR_zUG-28" value="" style="endArrow=classic;html=1;rounded=0;exitX=0.5;exitY=1;exitDx=0;exitDy=0;" parent="WIyWlLk6GJQsqaUBKTNV-1" source="vDdEp4xboGbFdGhR_zUG-27" edge="1">
          <mxGeometry width="50" height="50" relative="1" as="geometry">
            <mxPoint x="279" y="342.5" as="sourcePoint" />
            <mxPoint x="399" y="432.5" as="targetPoint" />
          </mxGeometry>
        </mxCell>
        <mxCell id="vDdEp4xboGbFdGhR_zUG-29" value="" style="endArrow=classic;html=1;rounded=0;exitX=0.5;exitY=1;exitDx=0;exitDy=0;" parent="WIyWlLk6GJQsqaUBKTNV-1" source="vDdEp4xboGbFdGhR_zUG-27" edge="1">
          <mxGeometry width="50" height="50" relative="1" as="geometry">
            <mxPoint x="319" y="322.5" as="sourcePoint" />
            <mxPoint x="399" y="472.5" as="targetPoint" />
          </mxGeometry>
        </mxCell>
        <mxCell id="vDdEp4xboGbFdGhR_zUG-30" value="Motor servo&lt;br&gt;Bergerak 90 Derajat ke Kanan" style="rounded=0;whiteSpace=wrap;html=1;" parent="WIyWlLk6GJQsqaUBKTNV-1" vertex="1">
          <mxGeometry x="353" y="472.5" width="96" height="50" as="geometry" />
        </mxCell>
        <mxCell id="vDdEp4xboGbFdGhR_zUG-31" value="Selesai" style="ellipse;whiteSpace=wrap;html=1;" parent="WIyWlLk6GJQsqaUBKTNV-1" vertex="1">
          <mxGeometry x="469" y="552.5" width="100" height="40" as="geometry" />
        </mxCell>
        <mxCell id="vDdEp4xboGbFdGhR_zUG-32" value="" style="endArrow=classic;html=1;rounded=0;entryX=0;entryY=0.5;entryDx=0;entryDy=0;exitX=0.5;exitY=1;exitDx=0;exitDy=0;" parent="WIyWlLk6GJQsqaUBKTNV-1" source="vDdEp4xboGbFdGhR_zUG-30" target="vDdEp4xboGbFdGhR_zUG-31" edge="1">
          <mxGeometry width="50" height="50" relative="1" as="geometry">
            <mxPoint x="459" y="482.5" as="sourcePoint" />
            <mxPoint x="509" y="432.5" as="targetPoint" />
            <Array as="points">
              <mxPoint x="401" y="572.5" />
            </Array>
          </mxGeometry>
        </mxCell>
        <mxCell id="vDdEp4xboGbFdGhR_zUG-33" value="Tekan &quot;OFF&quot;" style="rounded=0;whiteSpace=wrap;html=1;" parent="WIyWlLk6GJQsqaUBKTNV-1" vertex="1">
          <mxGeometry x="589" y="287.5" width="100" height="30" as="geometry" />
        </mxCell>
        <mxCell id="vDdEp4xboGbFdGhR_zUG-34" value="" style="endArrow=classic;html=1;rounded=0;exitX=0.5;exitY=1;exitDx=0;exitDy=0;" parent="WIyWlLk6GJQsqaUBKTNV-1" source="vDdEp4xboGbFdGhR_zUG-33" target="vDdEp4xboGbFdGhR_zUG-35" edge="1">
          <mxGeometry width="50" height="50" relative="1" as="geometry">
            <mxPoint x="659" y="317.5" as="sourcePoint" />
            <mxPoint x="639" y="327.5" as="targetPoint" />
          </mxGeometry>
        </mxCell>
        <mxCell id="vDdEp4xboGbFdGhR_zUG-35" value="Jika &quot;OFF&quot;&amp;nbsp;&lt;br&gt;Di tekan" style="rhombus;whiteSpace=wrap;html=1;" parent="WIyWlLk6GJQsqaUBKTNV-1" vertex="1">
          <mxGeometry x="589" y="357.5" width="100" height="70" as="geometry" />
        </mxCell>
        <mxCell id="vDdEp4xboGbFdGhR_zUG-36" value="" style="endArrow=classic;html=1;rounded=0;exitX=0.5;exitY=1;exitDx=0;exitDy=0;" parent="WIyWlLk6GJQsqaUBKTNV-1" source="vDdEp4xboGbFdGhR_zUG-35" edge="1">
          <mxGeometry width="50" height="50" relative="1" as="geometry">
            <mxPoint x="519" y="337.5" as="sourcePoint" />
            <mxPoint x="639" y="427.5" as="targetPoint" />
          </mxGeometry>
        </mxCell>
        <mxCell id="vDdEp4xboGbFdGhR_zUG-37" value="" style="endArrow=classic;html=1;rounded=0;exitX=0.5;exitY=1;exitDx=0;exitDy=0;" parent="WIyWlLk6GJQsqaUBKTNV-1" source="vDdEp4xboGbFdGhR_zUG-35" edge="1">
          <mxGeometry width="50" height="50" relative="1" as="geometry">
            <mxPoint x="559" y="317.5" as="sourcePoint" />
            <mxPoint x="639" y="467.5" as="targetPoint" />
          </mxGeometry>
        </mxCell>
        <mxCell id="vDdEp4xboGbFdGhR_zUG-38" value="Motor servo&lt;br&gt;Bergerak 90 Derajat ke Kiri" style="rounded=0;whiteSpace=wrap;html=1;" parent="WIyWlLk6GJQsqaUBKTNV-1" vertex="1">
          <mxGeometry x="593" y="467.5" width="96" height="50" as="geometry" />
        </mxCell>
        <mxCell id="vDdEp4xboGbFdGhR_zUG-39" value="" style="endArrow=classic;html=1;rounded=0;exitX=1;exitY=0.5;exitDx=0;exitDy=0;entryX=0.5;entryY=0;entryDx=0;entryDy=0;" parent="WIyWlLk6GJQsqaUBKTNV-1" source="vDdEp4xboGbFdGhR_zUG-22" target="vDdEp4xboGbFdGhR_zUG-33" edge="1">
          <mxGeometry width="50" height="50" relative="1" as="geometry">
            <mxPoint x="449" y="460" as="sourcePoint" />
            <mxPoint x="499" y="410" as="targetPoint" />
            <Array as="points">
              <mxPoint x="639" y="250" />
            </Array>
          </mxGeometry>
        </mxCell>
        <mxCell id="vDdEp4xboGbFdGhR_zUG-40" value="" style="endArrow=classic;html=1;rounded=0;exitX=0.5;exitY=1;exitDx=0;exitDy=0;entryX=1;entryY=0.5;entryDx=0;entryDy=0;" parent="WIyWlLk6GJQsqaUBKTNV-1" source="vDdEp4xboGbFdGhR_zUG-38" target="vDdEp4xboGbFdGhR_zUG-31" edge="1">
          <mxGeometry width="50" height="50" relative="1" as="geometry">
            <mxPoint x="429" y="462.5" as="sourcePoint" />
            <mxPoint x="479" y="412.5" as="targetPoint" />
            <Array as="points">
              <mxPoint x="641" y="572.5" />
            </Array>
          </mxGeometry>
        </mxCell>
        <mxCell id="vDdEp4xboGbFdGhR_zUG-41" value="" style="endArrow=classic;html=1;rounded=0;exitX=1;exitY=0.5;exitDx=0;exitDy=0;entryX=1;entryY=0.5;entryDx=0;entryDy=0;" parent="WIyWlLk6GJQsqaUBKTNV-1" source="vDdEp4xboGbFdGhR_zUG-11" target="WIyWlLk6GJQsqaUBKTNV-6" edge="1">
          <mxGeometry width="50" height="50" relative="1" as="geometry">
            <mxPoint x="289" y="460" as="sourcePoint" />
            <mxPoint x="319" y="360" as="targetPoint" />
            <Array as="points">
              <mxPoint x="319" y="810" />
              <mxPoint x="319" y="730" />
              <mxPoint x="319" y="355" />
            </Array>
          </mxGeometry>
        </mxCell>
        <mxCell id="0mWZ866NJLrGV8eD4E7F-0" value="Menampilkan Data&lt;br&gt;di Android" style="shape=parallelogram;perimeter=parallelogramPerimeter;whiteSpace=wrap;html=1;fixedSize=1;" vertex="1" parent="WIyWlLk6GJQsqaUBKTNV-1">
          <mxGeometry x="139" y="700" width="140" height="60" as="geometry" />
        </mxCell>
        <mxCell id="0mWZ866NJLrGV8eD4E7F-1" value="" style="endArrow=classic;html=1;rounded=0;exitX=0.5;exitY=1;exitDx=0;exitDy=0;entryX=0.5;entryY=0;entryDx=0;entryDy=0;" edge="1" parent="WIyWlLk6GJQsqaUBKTNV-1" source="vDdEp4xboGbFdGhR_zUG-10" target="0mWZ866NJLrGV8eD4E7F-0">
          <mxGeometry width="50" height="50" relative="1" as="geometry">
            <mxPoint x="389" y="710" as="sourcePoint" />
            <mxPoint x="439" y="660" as="targetPoint" />
          </mxGeometry>
        </mxCell>
        <mxCell id="0mWZ866NJLrGV8eD4E7F-2" value="" style="endArrow=classic;html=1;rounded=0;exitX=0.5;exitY=1;exitDx=0;exitDy=0;entryX=0.5;entryY=0;entryDx=0;entryDy=0;" edge="1" parent="WIyWlLk6GJQsqaUBKTNV-1" source="0mWZ866NJLrGV8eD4E7F-0" target="vDdEp4xboGbFdGhR_zUG-11">
          <mxGeometry width="50" height="50" relative="1" as="geometry">
            <mxPoint x="389" y="710" as="sourcePoint" />
            <mxPoint x="439" y="660" as="targetPoint" />
          </mxGeometry>
        </mxCell>
        <mxCell id="0mWZ866NJLrGV8eD4E7F-3" value="" style="endArrow=classic;html=1;rounded=0;entryX=0.429;entryY=0;entryDx=0;entryDy=0;entryPerimeter=0;exitX=1;exitY=0.5;exitDx=0;exitDy=0;" edge="1" parent="WIyWlLk6GJQsqaUBKTNV-1" source="vDdEp4xboGbFdGhR_zUG-16" target="vDdEp4xboGbFdGhR_zUG-22">
          <mxGeometry width="50" height="50" relative="1" as="geometry">
            <mxPoint x="410" y="240" as="sourcePoint" />
            <mxPoint x="460" y="190" as="targetPoint" />
            <Array as="points">
              <mxPoint x="510" y="185" />
            </Array>
          </mxGeometry>
        </mxCell>
        <mxCell id="0mWZ866NJLrGV8eD4E7F-4" value="" style="endArrow=classic;html=1;rounded=0;entryX=0.5;entryY=0;entryDx=0;entryDy=0;exitX=0;exitY=0.5;exitDx=0;exitDy=0;" edge="1" parent="WIyWlLk6GJQsqaUBKTNV-1" source="vDdEp4xboGbFdGhR_zUG-16" target="vDdEp4xboGbFdGhR_zUG-1">
          <mxGeometry width="50" height="50" relative="1" as="geometry">
            <mxPoint x="290" y="410" as="sourcePoint" />
            <mxPoint x="340" y="360" as="targetPoint" />
            <Array as="points">
              <mxPoint x="210" y="185" />
            </Array>
          </mxGeometry>
        </mxCell>
      </root>
    </mxGraphModel>
  </diagram>
</mxfile>
